<?xml version="1.0" encoding="UTF-8" standalone="no"?>
<svg
   xmlns:dc="http://purl.org/dc/elements/1.1/"
   xmlns:cc="http://creativecommons.org/ns#"
   xmlns:rdf="http://www.w3.org/1999/02/22-rdf-syntax-ns#"
   xmlns:svg="http://www.w3.org/2000/svg"
   xmlns="http://www.w3.org/2000/svg"
   viewBox="0 0 292.056 162.77733"
   height="162.77733"
   width="292.056"
   xml:space="preserve"
   id="svg2"
   version="1.1"><metadata
     id="metadata8"><rdf:RDF><cc:Work
         rdf:about=""><dc:format>image/svg+xml</dc:format><dc:type
           rdf:resource="http://purl.org/dc/dcmitype/StillImage" /></cc:Work></rdf:RDF></metadata><defs
     id="defs6"><clipPath
       id="clipPath18"
       clipPathUnits="userSpaceOnUse"><path
         id="path16"
         d="M 0,122.083 H 219.042 V 0 H 0 Z" /></clipPath></defs><g
     transform="matrix(1.3333333,0,0,-1.3333333,0,162.77733)"
     id="g10"><g
       id="g12"><g
         clip-path="url(#clipPath18)"
         id="g14"><g
           transform="translate(44.2765,46.5511)"
           id="g20"><path
             id="path22"
             style="fill:#ed1c24;fill-opacity:1;fill-rule:nonzero;stroke:none"
             d="m 0,0 c 0.122,0 0.203,-0.009 0.244,-0.025 0.102,0.033 0.204,0.033 0.306,0 C 0.651,-0.059 0.753,-0.067 0.855,-0.05 1.1,-0.067 1.339,-0.101 1.573,-0.15 1.807,-0.2 2.036,-0.259 2.261,-0.325 2.525,-0.408 2.8,-0.509 3.085,-0.625 3.92,-0.975 4.623,-1.475 5.193,-2.124 5.702,-2.707 6.028,-3.356 6.171,-4.072 6.313,-4.788 6.272,-5.496 6.049,-6.195 6.008,-6.278 5.967,-6.366 5.927,-6.458 5.886,-6.549 5.845,-6.637 5.804,-6.72 5.682,-7.003 5.509,-7.277 5.285,-7.544 5.061,-7.811 4.837,-8.061 4.613,-8.293 l -1.497,-1.725 4.002,-7.443 H 0.03 l -4.093,7.573 4.43,4.974 h -4.614 v -12.547 h -5.865 V 0 Z" /></g><g
           transform="translate(70.4577,46.5511)"
           id="g24"><path
             id="path26"
             style="fill:#ed1c24;fill-opacity:1;fill-rule:nonzero;stroke:none"
             d="m 0,0 0.733,-4.989 -4.43,0.05 2.719,-3.717 -2.78,-3.916 H 0.733 L 0,-17.461 h -14.542 l 6.507,8.705 V -8.73 L -14.542,0 Z" /></g><g
           transform="translate(83.2892,41.6497)"
           id="g28"><path
             id="path30"
             style="fill:#ed1c24;fill-opacity:1;fill-rule:nonzero;stroke:none"
             d="m 0,0 c -0.306,0.024 -0.611,0.045 -0.917,0.062 -0.102,-0.017 -0.204,-0.017 -0.305,0 -0.102,0.016 -0.204,0.008 -0.306,-0.025 v -7.683 -0.025 c 0.041,0.017 0.081,0.013 0.122,-0.012 0.041,-0.025 0.082,-0.021 0.123,0.012 0.061,-0.016 0.162,-0.024 0.305,-0.024 h 0.306 c 0.162,0 0.331,0.004 0.504,0.012 0.172,0.008 0.34,0.021 0.504,0.037 0.04,0.034 0.081,0.05 0.122,0.05 0.081,0 0.132,0.008 0.153,0.025 0.326,0.066 0.611,0.158 0.855,0.274 0.346,0.134 0.672,0.308 0.978,0.525 0.306,0.215 0.58,0.457 0.825,0.723 0.549,0.649 0.835,1.371 0.855,2.17 0,0.399 -0.082,0.823 -0.244,1.272 -0.042,0.1 -0.087,0.195 -0.138,0.287 C 3.691,-2.229 3.646,-2.133 3.604,-2.033 3.421,-1.801 3.228,-1.58 3.024,-1.372 2.82,-1.165 2.576,-0.97 2.291,-0.786 2.067,-0.653 1.837,-0.537 1.604,-0.437 1.369,-0.337 1.13,-0.246 0.886,-0.162 0.6,-0.079 0.305,-0.025 0,0 M 0.397,4.852 C 2.047,4.685 3.594,4.24 5.041,3.517 6.486,2.793 7.668,1.85 8.584,0.686 9.195,-0.162 9.633,-1.077 9.898,-2.059 10.163,-3.04 10.204,-4.054 10.021,-5.102 9.898,-5.783 9.674,-6.444 9.348,-7.084 9.022,-7.725 8.615,-8.323 8.126,-8.881 7.637,-9.438 7.067,-9.944 6.416,-10.402 5.763,-10.859 5.061,-11.246 4.307,-11.562 3.432,-11.928 2.505,-12.186 1.527,-12.335 0.55,-12.484 -0.458,-12.56 -1.497,-12.56 H -7.485 V 4.901 h 5.621 z" /></g><g
           transform="translate(108.9206,41.6615)"
           id="g32"><path
             id="path34"
             style="fill:#231f20;fill-opacity:1;fill-rule:nonzero;stroke:none"
             d="m 0,0 h -4.766 l -0.03,-3.866 v -3.717 h 4.552 l -4.552,3.717 z M 0.336,4.89 0.886,4.84 C 1.069,4.822 1.283,4.781 1.528,4.715 1.772,4.648 2.006,4.581 2.23,4.516 2.373,4.465 2.51,4.415 2.643,4.365 2.775,4.315 2.902,4.257 3.025,4.19 3.188,4.107 3.34,4.024 3.483,3.941 3.625,3.858 3.768,3.767 3.911,3.667 5.234,2.752 5.917,1.538 5.958,0.025 5.958,-0.74 5.759,-1.459 5.362,-2.133 4.965,-2.806 4.41,-3.376 3.697,-3.841 v -0.05 C 3.921,-4.024 4.14,-4.19 4.354,-4.39 4.567,-4.589 4.755,-4.789 4.919,-4.988 5.387,-5.537 5.687,-6.169 5.82,-6.884 5.952,-7.6 5.906,-8.289 5.683,-8.954 5.642,-9.121 5.581,-9.274 5.5,-9.416 5.417,-9.558 5.336,-9.711 5.255,-9.877 c -0.102,-0.101 -0.163,-0.184 -0.183,-0.25 -0.225,-0.316 -0.494,-0.602 -0.81,-0.86 -0.316,-0.258 -0.647,-0.503 -0.993,-0.737 -0.408,-0.215 -0.825,-0.39 -1.252,-0.523 -0.021,0 -0.041,-0.004 -0.061,-0.013 -0.021,-0.009 -0.041,-0.011 -0.061,-0.011 -0.306,-0.118 -0.693,-0.201 -1.162,-0.25 -0.142,-0.017 -0.28,-0.03 -0.412,-0.038 -0.133,-0.008 -0.27,-0.012 -0.412,-0.012 h -0.826 -9.958 V 4.89 h 10.172 z" /></g><g
           transform="translate(131.4362,41.4622)"
           id="g36"><path
             id="path38"
             style="fill:#231f20;fill-opacity:1;fill-rule:nonzero;stroke:none"
             d="m 0,0 -0.489,0.05 c -0.428,0.016 -0.855,-0.009 -1.283,-0.075 -0.102,0 -0.198,-0.017 -0.29,-0.05 -0.092,-0.033 -0.188,-0.05 -0.29,-0.05 -0.164,-0.066 -0.332,-0.129 -0.504,-0.187 -0.174,-0.058 -0.342,-0.137 -0.504,-0.237 -0.102,-0.016 -0.174,-0.05 -0.214,-0.099 -0.041,-0.05 -0.102,-0.092 -0.184,-0.125 -0.081,-0.05 -0.163,-0.1 -0.244,-0.15 -0.081,-0.05 -0.153,-0.116 -0.214,-0.199 -0.041,0 -0.061,-0.009 -0.061,-0.025 l -0.061,-0.05 c -0.02,-0.017 -0.041,-0.037 -0.061,-0.063 -0.02,-0.024 -0.051,-0.053 -0.092,-0.087 -0.041,-0.084 -0.097,-0.154 -0.168,-0.212 -0.071,-0.058 -0.127,-0.128 -0.168,-0.212 -0.041,-0.067 -0.087,-0.133 -0.137,-0.2 -0.052,-0.066 -0.097,-0.133 -0.138,-0.199 -0.021,-0.084 -0.045,-0.158 -0.076,-0.225 -0.03,-0.066 -0.067,-0.141 -0.107,-0.224 -0.021,-0.083 -0.046,-0.162 -0.076,-0.237 -0.031,-0.075 -0.046,-0.163 -0.046,-0.262 -0.041,-0.017 -0.051,-0.029 -0.031,-0.037 0.02,-0.009 0.031,-0.03 0.031,-0.063 -0.061,-0.166 -0.072,-0.399 -0.031,-0.698 v -0.075 c 0.081,-0.715 0.377,-1.339 0.886,-1.87 0.061,-0.084 0.133,-0.159 0.214,-0.225 0.081,-0.067 0.153,-0.134 0.214,-0.2 0.081,-0.067 0.163,-0.124 0.244,-0.174 0.061,-0.051 0.102,-0.075 0.122,-0.075 0.102,-0.083 0.184,-0.142 0.245,-0.175 0.061,-0.033 0.112,-0.059 0.153,-0.075 0.04,-0.017 0.081,-0.041 0.122,-0.074 0.081,-0.034 0.157,-0.063 0.229,-0.088 0.071,-0.025 0.157,-0.054 0.259,-0.087 0.102,-0.05 0.265,-0.109 0.489,-0.175 0.224,-0.066 0.418,-0.1 0.581,-0.1 0.081,-0.033 0.142,-0.049 0.183,-0.049 0.102,0 0.173,-0.009 0.214,-0.026 0.061,0.017 0.127,0.022 0.199,0.013 0.071,-0.009 0.137,-0.004 0.198,0.013 0.448,0 0.876,0.049 1.283,0.149 0.082,0.033 0.143,0.05 0.184,0.05 0.061,0 0.132,0.016 0.213,0.05 0.041,-0.034 0.061,-0.034 0.061,0 l 0.062,0.05 c 0.061,0 0.117,0.016 0.167,0.05 0.051,0.033 0.118,0.058 0.199,0.074 0.102,0.083 0.214,0.15 0.336,0.201 0.061,0.032 0.127,0.065 0.199,0.099 0.071,0.033 0.137,0.067 0.199,0.1 0.081,0.099 0.162,0.158 0.244,0.175 0.061,0.066 0.122,0.124 0.183,0.174 0.061,0.05 0.122,0.108 0.183,0.174 0.143,0.133 0.27,0.271 0.382,0.412 0.112,0.141 0.219,0.303 0.321,0.487 0.061,0.099 0.107,0.203 0.138,0.311 0.03,0.109 0.065,0.212 0.107,0.312 0.183,0.699 0.142,1.363 -0.123,1.996 C 3.33,-2.096 3.085,-1.721 2.719,-1.372 2.414,-1.022 1.976,-0.715 1.405,-0.449 1.161,-0.316 0.866,-0.208 0.52,-0.125 0.417,-0.092 0.326,-0.071 0.245,-0.062 0.163,-0.054 0.081,-0.033 0,0 M 2.414,4.664 C 2.576,4.631 2.724,4.59 2.856,4.54 2.989,4.49 3.126,4.448 3.269,4.415 4.247,4.082 5.173,3.629 6.049,3.056 6.924,2.481 7.658,1.812 8.249,1.048 9.022,0.05 9.537,-1.052 9.792,-2.258 10.046,-3.463 9.97,-4.664 9.563,-5.861 9.379,-6.478 9.099,-7.071 8.722,-7.646 8.345,-8.219 7.907,-8.751 7.409,-9.241 c -0.5,-0.491 -1.065,-0.932 -1.696,-1.322 -0.631,-0.391 -1.294,-0.711 -1.986,-0.961 -1.202,-0.483 -2.505,-0.757 -3.91,-0.823 -2.241,-0.066 -4.262,0.307 -6.065,1.122 -1.802,0.815 -3.212,1.996 -4.231,3.542 -0.346,0.499 -0.616,1.036 -0.809,1.609 -0.194,0.574 -0.316,1.164 -0.367,1.771 -0.051,0.607 -0.026,1.21 0.076,1.809 0.102,0.598 0.275,1.172 0.52,1.721 0.407,0.998 1.059,1.924 1.955,2.781 0.896,0.856 1.925,1.525 3.086,2.008 0.325,0.166 0.651,0.299 0.977,0.399 0.245,0.083 0.54,0.166 0.886,0.249 1.426,0.366 2.923,0.49 4.491,0.375 C 0.703,5.005 1.059,4.96 1.405,4.901 1.751,4.843 2.087,4.765 2.414,4.664" /></g><g
           transform="translate(152.6076,46.5511)"
           id="g40"><path
             id="path42"
             style="fill:#231f20;fill-opacity:1;fill-rule:nonzero;stroke:none"
             d="M 0,0 V -12.473 H 6.049 L 5.376,-17.461 H -6.171 V 0 Z" /></g><g
           transform="translate(177.6584,41.5872)"
           id="g44"><path
             id="path46"
             style="fill:#231f20;fill-opacity:1;fill-rule:nonzero;stroke:none"
             d="m 0,0 h -4.185 v -12.497 h -6.11 V 0 h -4.247 l 0.825,4.964 h 12.923 z" /></g><g
           transform="translate(128.115,109.2402)"
           id="g48"><path
             id="path50"
             style="fill:#ed1c24;fill-opacity:1;fill-rule:nonzero;stroke:none"
             d="m 0,0 -15.14,-24.936 h 10.363 l -18.216,-30.279 37.889,37.89 H 0.729 L 12.387,0 Z" /></g><g
           transform="translate(81.2029,100.8217)"
           id="g52"><path
             id="path54"
             style="fill:#ed1c24;fill-opacity:1;fill-rule:nonzero;stroke:none"
             d="m 0,0 c 0,0 -4.764,-0.937 -8.93,3.294 -0.763,-4.478 -0.274,-8.698 4.465,-10.248 -1.03,-3.423 0.262,-8.095 2.522,-9.344 2.26,-1.248 3.768,-1.055 4.5,-1.378 0.732,-0.323 1.528,-0.473 1.399,-1.248 -0.129,-0.775 -0.345,-1.055 -0.236,-1.551 0.107,-0.495 2.389,-3.638 6.007,-3.057 0.021,3.725 -0.345,9.839 -0.345,9.839 L 8.778,-7.6 6.733,-2.131 3.116,0.625 Z" /></g><g
           transform="translate(108.0876,78.4741)"
           id="g56"><path
             id="path58"
             style="fill:#231f20;fill-opacity:1;fill-rule:nonzero;stroke:none"
             d="m 0,0 c -0.339,-0.744 -0.008,-2.35 -0.177,-3.124 -0.17,-0.777 -1.654,-1.308 -2.115,-1.179 -0.46,0.129 -0.936,1.098 -0.986,1.098 -0.048,0 -0.369,-0.235 -0.977,0.056 -0.604,0.291 -0.501,1.679 -0.258,2.107 0.242,0.427 1.348,1.075 1.743,1.277 0.397,0.2 0.397,0.443 0.541,1.025 0.147,0.582 0.018,2.649 -0.419,3.761 -0.436,1.116 -0.163,3.036 0,3.861 -2.536,1.371 -2.447,3.438 -2.447,3.875 0,0.435 -0.331,0.516 -0.41,0.388 -0.081,-0.129 -0.978,-0.881 -1.277,-1.091 -0.299,-0.21 -0.291,-0.364 -0.306,-0.718 -0.016,-0.357 0.032,-0.645 0.468,-1.713 0.434,-1.065 0.258,-3.67 0.182,-4.445 -0.074,-0.776 -0.043,-1.894 -0.708,-3.498 -0.668,-1.604 -1.23,-2.487 -1.66,-3.015 -0.43,-0.527 -0.774,-0.441 -1.161,-0.216 -0.387,0.228 -1.035,0.85 -1.379,1.399 -0.343,0.549 -0.549,1.25 -0.549,1.25 0,0 -0.096,0.225 -0.182,-0.377 -0.086,-0.602 -0.519,-2.39 -0.549,-3.218 -0.032,-0.83 0.202,-2.281 0.42,-3.918 0.215,-1.637 0.235,-2.778 -0.065,-3.833 -0.301,-1.055 -0.638,-5.213 -0.575,-5.803 0.066,-0.589 0.236,-0.597 0.486,-1.098 0.251,-0.501 0.243,-1.702 0.273,-2.001 0.033,-0.298 0.25,-0.276 0.84,-1.138 0.59,-0.865 0.986,-1.349 0.824,-2.423 -0.161,-1.073 -1.444,-1.759 -2.044,-1.759 -0.596,0 -1.297,0.089 -2.34,1.154 -1.042,1.065 -0.501,2.309 -0.372,2.63 0.13,0.325 0.122,0.906 -0.095,1.091 -0.218,0.187 -0.244,0.88 -0.299,1.186 -0.058,0.309 0.233,1.189 0.24,1.437 0.011,0.251 -0.207,0.622 -0.49,1.172 -0.283,0.549 -1.212,3.19 -1.455,3.916 -0.241,0.725 -0.66,2.711 -0.516,4.343 0.147,1.632 0.888,2.664 0.888,3.165 0,0.501 -0.015,1.355 -0.597,3.084 -0.582,1.727 -1.953,5.911 -2.102,7.298 -0.15,1.389 -0.018,4.08 0.326,5.33 0.344,1.247 0.693,2.947 0.671,3.357 -0.026,0.412 -0.38,0.931 -0.494,1.447 -0.114,0.516 -0.412,0.774 -0.807,1.193 -0.395,0.42 -1.275,1.938 -1.47,2.326 -0.953,0.139 -1.429,0.913 -1.801,1.446 -0.369,0.532 -0.313,0.436 -0.369,0.079 -0.058,-0.354 -0.066,-0.936 -0.534,-1.637 -0.468,-0.703 -0.372,-1.439 -0.412,-1.907 -0.041,-0.468 0.073,-0.428 0.534,-0.708 0.46,-0.284 1.54,-1.414 1.492,-1.949 -0.048,-0.531 -0.895,-1.072 -0.895,-1.072 -1.147,-1.204 -1.743,-1.123 -2.1,-0.953 -0.354,0.169 -0.807,0.96 -0.911,1.752 -0.106,0.792 0.129,1.478 0.097,1.68 -0.034,0.2 -0.188,0.741 -0.542,1.581 -0.354,0.84 -0.607,1.943 -0.371,4.42 0.237,2.476 1.292,3.939 1.454,4.272 0.159,0.334 0.42,0.433 0.526,0.476 0.108,0.043 0.991,-0.367 1.571,-0.291 0.581,0.076 1.111,-0.099 1.712,-0.42 0.603,-0.324 1.002,-0.185 1.195,-0.142 0.098,0.023 0.194,0.079 0.329,0.165 0.129,0.081 0.296,0.19 0.533,0.321 0.483,0.268 2.173,0 2.927,-0.162 0.564,-0.121 1.024,-0.506 1.221,-0.693 l 0.003,-0.002 c 0.066,-0.061 0.102,-0.102 0.102,-0.102 0,0 -0.129,1.518 -0.043,2.229 0.086,0.711 0.579,1.465 1.527,2.176 0.946,0.71 2.206,0.549 2.206,0.549 3,-0.287 3.112,-2.131 3.282,-3.251 0.169,-1.123 -0.122,-1.819 -0.115,-2.004 0.011,-0.184 0.122,-0.313 0.299,-0.493 0.18,-0.177 -0.015,-0.759 -0.015,-0.759 0,0 0.033,-0.119 0.339,-0.25 0.306,-0.13 1.761,-1.308 2.325,-1.743 0.566,-0.435 0.696,-0.582 1.485,-1.179 0.792,-0.597 1.373,-0.726 2.6,-1.581 1.227,-0.858 1.326,-2.457 1.275,-4.506 C 1.083,12.53 0.807,10.061 0.855,9.656 0.905,9.251 1.227,9.188 1.293,8.864 1.356,8.543 1.341,7.913 1.422,5.475 1.503,3.036 0.339,0.744 0,0" /></g><g
           transform="translate(93.8786,98.4311)"
           id="g60"><path
             id="path62"
             style="fill:#ed1c24;fill-opacity:1;fill-rule:nonzero;stroke:none"
             d="m 0,0 c 0,0 -0.787,-0.043 -1.476,0.228 -0.687,0.268 -1.71,1.938 -2.056,2.863 -0.344,0.926 -0.086,1.447 -0.812,2.32 -0.488,0.587 -1.345,0.923 -1.851,1.083 0.129,0.081 0.296,0.19 0.533,0.321 0.483,0.268 2.173,0 2.927,-0.162 0.564,-0.121 1.024,-0.506 1.221,-0.693 l 0.003,-0.002 0.059,-0.193 c 0,0 -0.405,0.185 -0.582,-0.103 C -2.479,4.829 -2.045,4.189 -1.174,3.569 -1.174,1.776 0,0 0,0" /></g><g
           transform="translate(100.1326,103.1899)"
           id="g64"><path
             id="path66"
             style="fill:#ed1c24;fill-opacity:1;fill-rule:nonzero;stroke:none"
             d="m 0,0 c 0,0 -1.05,-0.947 -1.283,-2.078 -0.03,-0.818 0.099,-0.634 0.067,-1.162 -0.032,-0.528 -0.043,-1.884 -1.862,-2.336 -0.043,-0.28 0.118,-0.301 1.033,-0.097 0.915,0.205 3.33,1.182 4.701,2.814 C 4.026,-1.227 0.439,0.076 0,0" /></g><g
           transform="translate(102.5544,91.4135)"
           id="g68"><path
             id="path70"
             style="fill:#ed1c24;fill-opacity:1;fill-rule:nonzero;stroke:none"
             d="M 0,0 C 0,0 -0.947,-2.519 -1.001,-3.305 -1.534,-1.989 -1.956,-1.44 -1.35,-0.965 -0.744,-0.491 0,0 0,0" /></g></g></g></g></svg>